HIERARCHY
ROOT Hips
{
  OFFSET -35.2597 29.1586 114.425
  CHANNELS 6 Xposition Yposition Zposition Zrotation Xrotation Yrotation
  JOINT LeftUpLeg
  {
    OFFSET 8.64259 1.95398 -2.38835
    CHANNELS 3 Zrotation Xrotation Yrotation
    JOINT LeftLeg
    {
      OFFSET 43.7702 0 0
      CHANNELS 3 Zrotation Xrotation Yrotation
      JOINT LeftFoot
      {
        OFFSET 40.6238 0 0
        CHANNELS 3 Zrotation Xrotation Yrotation
        JOINT LeftToeBase
        {
          OFFSET 12.7242 0 0
          CHANNELS 3 Zrotation Xrotation Yrotation
          End Site
          {
            OFFSET 0 0 0
          }
        }
      }
    }
  }
  JOINT RightUpLeg
  {
    OFFSET -8.2249 1.95398 -2.59336
    CHANNELS 3 Zrotation Xrotation Yrotation
    JOINT RightLeg
    {
      OFFSET 43.5653 0 0
      CHANNELS 3 Zrotation Xrotation Yrotation
      JOINT RightFoot
      {
        OFFSET 40.6238 0 0
        CHANNELS 3 Zrotation Xrotation Yrotation
        JOINT RightToeBase
        {
          OFFSET 12.7242 0 0
          CHANNELS 3 Zrotation Xrotation Yrotation
          End Site
          {
            OFFSET 0 0 0
          }
        }
      }
    }
  }
  JOINT Spine
  {
    OFFSET 0.165834 0.87714 6.61349
    CHANNELS 3 Zrotation Xrotation Yrotation
    JOINT Spine1
    {
      OFFSET 7.38963 1.71661e-005 0
      CHANNELS 3 Zrotation Xrotation Yrotation
      JOINT Spine2
      {
        OFFSET 11.9445 1.14441e-005 0
        CHANNELS 3 Zrotation Xrotation Yrotation
        JOINT Spine3
        {
          OFFSET 14.7254 4.19617e-005 0
          CHANNELS 3 Zrotation Xrotation Yrotation
          JOINT Spine4
          {
            OFFSET 10.9679 0 0
            CHANNELS 3 Zrotation Xrotation Yrotation
            JOINT RightShoulder
            {
              OFFSET 2.46616 -1.6653 3.69651
              CHANNELS 3 Zrotation Xrotation Yrotation
              JOINT RightArm
              {
                OFFSET 13.0012 0 0
                CHANNELS 3 Zrotation Xrotation Yrotation
                JOINT RightForeArm
                {
                  OFFSET 28.7848 1.62311e-005 0
                  CHANNELS 3 Zrotation Xrotation Yrotation
                  JOINT RightHand
                  {
                    OFFSET 26.5688 1.62095e-005 0
                    CHANNELS 3 Zrotation Xrotation Yrotation
                    End Site
                    {
                      OFFSET 0 0 0
                    }
                  }
                }
              }
            }
            JOINT LeftShoulder
            {
              OFFSET 2.38034 -1.29275 -3.7523
              CHANNELS 3 Zrotation Xrotation Yrotation
              JOINT LeftArm
              {
                OFFSET 16.3182 6.07031e-005 0
                CHANNELS 3 Zrotation Xrotation Yrotation
                JOINT LeftForeArm
                {
                  OFFSET 27.0901 0 0
                  CHANNELS 3 Zrotation Xrotation Yrotation
                  JOINT LeftHand
                  {
                    OFFSET 24.5451 1.51738e-005 0
                    CHANNELS 3 Zrotation Xrotation Yrotation
                    End Site
                    {
                      OFFSET 0 0 0
                    }
                  }
                }
              }
            }
            JOINT Neck
            {
              OFFSET 5.0226 -0.0266342 0
              CHANNELS 3 Zrotation Xrotation Yrotation
              JOINT Head
              {
                OFFSET 6.69364 2.86102e-005 0
                CHANNELS 3 Zrotation Xrotation Yrotation
                End Site
                {
                  OFFSET 0 0 0
                }
              }
            }
          }
        }
      }
    }
  }
}
MOTION
Frames:	14
Frame Time:	0.0416667
-148.279 80.5887 -148.493 -67.0659 -68.2536 -67.0074 -172.105 56.6642 119.591 -65.576 8.98669 -0.692302 82.3648 15.3068 0.841887 30.0491 -2.61526 6.73171 173.709 40.2285 69.6674 -63.4011 -20.2703 -4.35248 77.7298 -12.9523 0.578891 44.856 -6.37543 -1.72246 0.570179 9.59181 -90.8293 7.6931 0.777756 -1.6773 -3.97873 0.703175 -1.70989 -26.5095 1.24584 -1.3661 -6.49688 1.24585 -1.36609 84.3709 -31.0782 -117.146 35.5125 0.63124 8.40239 -50.8096 -21.9454 -73.7221 -28.1691 12.0563 -51.7909 -87.6489 -52.5997 82.6956 -22.7419 -6.6395 27.9148 42.8905 -5.93775 -97.4711 4.29476 -3.59791 -59.8287 30.1597 1.83438 0.83764 0.531957 1.45228 3.00131 
-143.551 81.6784 -143.788 -66.2537 -72.9995 -65.222 -171.32 54.7881 116.411 -63.2031 14.3173 -1.32756 77.6624 11.8019 -0.26522 33.5369 -0.713841 6.94347 172.862 30.6508 67.4411 -54.4385 -18.7704 -5.97097 72.4856 -9.19052 1.34549 47.1212 -7.02934 -4.485 0.607902 9.42985 -90.7239 8.01743 0.896527 -1.48039 -3.65409 0.830515 -1.5184 -26.1873 1.29996 -1.14255 -6.17464 1.29997 -1.14255 84.6666 -30.7809 -116.742 36.1879 -0.521366 14.9936 -45.6023 -16.3511 -75.5095 -26.9305 11.6775 -52.4719 -87.1102 -47.8924 82.7045 -22.1743 -6.14906 22.5142 42.9514 -6.95217 -98.5714 1.45299 -2.19403 -61.9974 27.3423 -1.16083 -2.85673 0.640562 0.00978597 3.23573 
-137.807 84.4454 -137.792 -58.3962 -77.8023 -54.2703 -170.549 52.6685 112.005 -64.1482 15.542 -1.61089 77.5175 11.6947 0.104489 27.3694 -3.42256 5.20836 171.909 17.7329 68.451 -38.9258 -15.9187 -7.12079 58.281 -0.686264 3.0699 49.8827 -8.00948 -6.24796 0.49125 9.05226 -91.01 8.77186 0.531429 -2.03048 -2.90063 0.44157 -2.05188 -25.4262 1.11702 -1.77702 -5.41357 1.11702 -1.77703 85.459 -31.0673 -115.097 35.9297 0.230787 23.2315 -42.3176 -11.7835 -78.6274 -25.0346 11.955 -56.7356 -86.6456 -42.837 82.5291 -22.1106 -2.94159 14.0458 42.2539 -6.16964 -97.8554 0.24499 -1.57656 -62.7509 23.148 -3.24262 -7.91984 -0.59126 -0.408837 4.86158 
-130.818 87.3725 -130.872 -37.5097 -80.4864 -30.8678 -170.979 48.4654 107.453 -62.6408 13.8981 -0.556051 80.0359 13.5285 -0.857505 28.7294 -3.58821 7.14132 172.623 11.0274 70.8771 -33.3564 -12.5723 -9.16095 55.6599 2.16021 -0.894883 23.7368 1.67197 0.953356 0.136445 8.54123 -91.3494 9.77974 -0.338934 -2.64725 -1.89382 -0.455083 -2.62979 -24.4077 0.472045 -2.62678 -4.39504 0.472041 -2.6268 86.9569 -31.277 -112.155 34.3526 2.93115 28.8371 -43.8809 -9.60554 -81.5563 -22.3889 12.262 -63.528 -86.7394 -38.7801 81.5912 -21.9068 -0.701407 7.07213 38.7377 -4.4094 -96.3444 -0.629131 -1.07722 -65.9312 16.6228 -3.17992 -13.4578 -2.05044 0.645822 7.35079 
-123.469 89.5016 -124.813 -40.4739 -81.5421 -31.9033 -170.057 41.1825 103.367 -61.2107 8.17456 -0.194238 86.0562 16.8152 -3.77357 27.3188 -4.95821 8.1289 173.657 10.7334 73.5143 -39.5247 -17.7941 -9.4634 61.1063 -1.0621 -4.20389 14.14 3.84359 5.81602 0.21499 8.50544 -91.6616 9.84653 -0.324743 -3.27057 -1.82846 -0.468301 -3.25314 -24.3314 0.672672 -3.21714 -4.31877 0.672675 -3.21714 90.2558 -29.2742 -106.527 34.4473 0.619569 35.4845 -43.3809 -4.13681 -87.9655 -20.763 11.7093 -65.2008 -86.8005 -34.9498 80.6533 -21.0149 -2.53454 6.18503 40.2872 -6.5211 -98.6783 3.36278 -3.66506 -68.2139 13.7847 -0.931726 -12.45 -3.13474 2.1605 8.63259 
-115.618 91.3885 -119.779 -59.9704 -79.3483 -51.3455 -167.403 33.2537 97.4879 -57.1766 2.18895 -1.87706 87.7284 18.5053 -2.09014 27.9304 -4.06127 7.08676 173.801 18.1538 75.1569 -49.2643 -17.498 -6.44196 62.9177 -2.14912 -4.01134 15.5491 2.89348 6.70848 0.273874 8.578 -91.7535 9.70093 -0.246773 -3.45857 -1.97455 -0.398656 -3.44439 -24.4741 0.803455 -3.37309 -4.46141 0.803464 -3.37309 90.7796 -28.4088 -105.799 33.53 0.839144 38.2563 -40.2884 -1.3574 -91.0125 -15.0738 9.42259 -71.2161 -86.2758 -35.0484 81.6167 -20.5849 -8.11 16.0292 39.428 -10.844 -104.119 -0.00123553 -1.48792 -66.1883 13.0267 4.93001 -6.73856 -5.57453 6.14115 9.39281 
-107.803 94.0375 -114.727 -69.2844 -71.8989 -62.9744 -161.967 27.3784 91.8581 -50.8787 -0.221814 -7.50437 80.6148 14.8824 1.66829 31.4509 0.996373 0.787192 174.978 29.376 78.3496 -56.657 -14.9163 -4.08344 68.6153 -6.11921 -5.6226 18.0173 2.50981 5.36076 0.35408 8.44581 -91.4773 9.97392 0.03426 -2.93527 -1.70035 -0.0948946 -2.93394 -24.2108 0.914504 -2.7895 -4.19813 0.9145 -2.78951 89.5637 -28.7078 -108.143 32.8574 1.48637 38.2191 -41.5246 -0.29673 -92.4203 -12.8938 8.3256 -73.5024 -85.187 -38.017 84.1309 -20.5038 -14.6532 30.4329 40.4379 -14.4192 -107.731 0.106486 -1.64859 -68.0442 11.4174 12.8492 0.911807 -8.31387 11.8071 8.62847 
-100.684 96.5091 -110.05 -70.3286 -65.1651 -67.4331 -158.299 25.8492 89.2095 -45.5173 9.18107 -13.3097 63.5422 2.06406 1.57143 40.5551 7.02038 -4.66808 174.222 37.5246 83.2535 -57.3335 -14.8503 -1.39374 69.4924 -6.28694 -2.99359 21.5845 0.872189 6.08756 0.497229 8.43227 -90.9906 10.0114 0.540291 -2.01068 -1.66101 0.451292 -2.03251 -24.1872 1.11952 -1.75548 -4.17448 1.11953 -1.75548 87.6303 -31.0383 -110.962 31.1834 4.50728 35.3897 -48.9058 -0.92951 -92.0175 -15.2619 10.012 -73.9032 -84.9633 -41.8242 85.1358 -19.726 -20.6701 44.0722 43.847 -18.6338 -110.087 0.882541 -2.17544 -69.2501 11.8867 18.5713 6.52114 -9.51308 16.0075 8.76023 
-93.8426 96.7161 -105.409 -67.1149 -63.4971 -67.533 -158.821 27.6355 87.1193 -47.631 17.9452 -12.7638 57.5065 -2.66925 -5.56223 44.0118 6.38245 2.35474 170.813 41.3386 87.1905 -55.2396 -20.3754 1.78298 68.0499 -4.79909 -0.37458 28.5721 -1.28032 4.65821 0.536662 8.47008 -90.6167 9.93672 0.789466 -1.28806 -1.73467 0.732018 -1.32157 -24.2684 1.14008 -0.991274 -4.25575 1.14006 -0.99129 85.7602 -31.6641 -114.24 29.3307 8.68394 34.9048 -52.6525 -1.50174 -91.5117 -16.3974 11.1114 -75.3578 -85.9108 -44.2576 83.9769 -19.681 -18.4945 45.4533 47.412 -16.4679 -106.277 5.71918 -5.05958 -67.4287 13.0212 20.7282 8.54493 -9.42697 17.5192 9.42647 
-87.3772 95.8288 -100.783 -62.9113 -66.3001 -65.3465 -159.554 32.1711 86.979 -60.2076 8.67598 -8.39116 67.5458 4.10187 -1.2285 35.268 2.33043 1.98996 168.189 40.0274 88.5592 -50.7686 -25.779 4.01709 67.2048 -4.19068 1.62566 34.9929 -3.12253 2.32778 0.423623 8.61963 -90.4104 9.63655 0.659185 -0.865221 -2.03454 0.620475 -0.893391 -24.5697 0.888753 -0.627103 -4.55705 0.88875 -0.627107 85.2283 -32.0442 -115.057 29.0402 9.39236 32.9831 -49.1004 -2.45808 -90.7123 -13.805 9.26435 -75.3064 -86.6312 -47.0487 83.2995 -21.9034 -9.99725 42.3782 44.5818 -10.5316 -101.88 13.0855 -8.31678 -59.833 13.8541 20.8846 7.3814 -8.52371 17.8606 10.7508 
-81.8333 94.0829 -96.0286 -63.8302 -68.9832 -66.5871 -160.153 36.4194 92.4788 -67.3843 0.159904 -4.94298 74.7566 9.38629 2.24608 30.1034 1.54278 -1.93204 169.738 33.3422 88.5924 -47.2387 -12.89 2.84529 73.2858 -8.24234 3.56369 31.3453 -1.76932 2.74489 0.600502 8.7932 -90.2926 9.28913 1.0663 -0.656468 -2.38161 1.03638 -0.702773 -24.9196 1.21431 -0.305608 -4.90691 1.21429 -0.305627 85.7969 -32.7535 -113.664 30.1302 7.66665 26.9176 -52.3031 -6.01361 -87.4457 -18.9352 12.4357 -73.5888 -87.414 -52.2061 82.9745 -23.0187 -8.15424 39.5407 45.3562 -6.68942 -97.8234 14.4949 -7.62005 -52.2438 12.6264 19.7189 6.18317 -7.5041 17.2111 10.2446 
-76.3349 91.5557 -91.7737 -61.2052 -70.8523 -65.0884 -161.827 42.2005 99.3708 -67.1273 -5.43559 -3.19304 76.5424 11.285 3.72849 29.5846 1.82702 -3.06281 172.963 33.6017 85.1771 -53.4584 -1.34856 -0.809584 81.6974 -14.2208 1.43434 28.6606 -0.0719837 0.413014 0.835614 8.77582 -89.9943 9.32585 1.66901 -0.113369 -2.34401 1.6624 -0.186736 -24.8877 1.6259 0.393621 -4.87504 1.6259 0.393616 86.4459 -33.3814 -112.177 31.7485 2.82281 25.5548 -48.4288 -4.52752 -88.3457 -20.3107 12.5172 -69.4396 -87.392 -57.2344 83.7884 -22.0246 -11.6476 41.3576 42.3447 -5.63877 -97.2191 11.8721 -6.74707 -54.2905 12.8213 18.4273 4.96018 -7.94416 16.2372 9.46204 
-70.0953 89.2724 -86.1041 -57.3954 -72.6588 -59.4384 -166.1 47.376 109.136 -61.5677 -7.14277 -2.26024 81.5258 14.3586 2.50072 26.4499 -1.40599 0.475453 171.881 32.396 81.0791 -55.2195 -0.58885 -1.55326 81.3791 -14.0589 2.91652 37.0031 -2.83894 -2.80105 0.943134 8.87298 -89.9673 9.12925 1.89581 -0.0696038 -2.54033 1.8909 -0.153028 -25.086 1.82904 0.503566 -5.07339 1.82905 0.503561 86.1758 -32.1102 -113.25 32.0722 -1.2711 23.018 -46.6063 -1.85143 -90.8936 -24.6462 14.3405 -66.365 -85.1921 -56.3489 86.7472 -22.2977 -10.3832 51.5923 35.4708 -8.73971 -103.027 14.5684 -7.33822 -50.4514 15.48 17.8477 4.8957 -7.97898 15.5793 8.34007 
-63.274 88.9261 -79.0417 -53.6016 -77.7096 -53.9957 -169.895 46.9163 114.939 -50.7634 -3.76694 -1.83212 78.0593 12.5458 2.4702 27.0273 -1.56338 1.37441 167.24 24.605 75.2374 -49.2304 -6.05488 -0.720244 76.2112 -11.1794 1.2318 41.1569 -4.46727 -3.99572 0.901178 8.88455 -90.0352 9.10673 1.78176 -0.195653 -2.56303 1.77141 -0.273929 -25.1077 1.75816 0.349052 -5.0951 1.75816 0.349044 85.0547 -33.942 -114.485 31.1943 0.328341 24.8036 -44.4163 -0.415461 -92.6121 -19.3441 11.8565 -69.5321 -84.6894 -53.8518 87.171 -22.2011 -10.9519 51.4267 36.2851 -7.71698 -101.449 9.33905 -5.16778 -55.4425 13.4664 15.2991 0.438885 -10.0729 14.1195 9.08609 
